<?xml version="1.0" encoding="utf-8"?>
<!-- Generator: Adobe Illustrator 24.3.0, SVG Export Plug-In . SVG Version: 6.00 Build 0)  -->
<svg version="1.1" id="Layer_1" xmlns="http://www.w3.org/2000/svg" xmlns:xlink="http://www.w3.org/1999/xlink" x="0px" y="0px"
	 viewBox="0 0 1812.7 422.7" style="enable-background:new 0 0 1812.7 422.7;" xml:space="preserve">
<style type="text/css">
	.st0{opacity:0.21;fill:#FFFFFF;}
</style>
<path class="st0" d="M91.6,211.2l-6.7-4c-11.6-6.9-21.3-13-29-18.2c-6.6-4.3-12.9-9.1-18.8-14.3c-4.2-3.6-7.8-7.7-10.8-12.3
	c-2.3-3.7-4-7.8-4.9-12.1c-1.7-8.3-0.3-15.9,4.1-22.6c4.3-6.7,11.2-11.2,19-12.7c5.1-1.1,10.4-0.8,15.4,0.7c5.2,1.7,10,4.6,13.9,8.4
	c2.4-5.1,5.8-9.7,10-13.5c3.8-3.2,8.4-5.4,13.3-6.4c7.7-1.8,15.8-0.3,22.4,4.1c6.7,4.4,11,10.8,12.7,19.1c0.9,4.3,1,8.7,0.3,13.1
	c-1,5.4-2.7,10.6-5.1,15.6c-3.4,7.1-7.3,14-11.6,20.6c-5,7.8-11.5,17.2-19.4,28.2L91.6,211.2z M89.3,200.2
	c7.6-10.5,13.8-19.5,18.5-26.9c4.1-6.1,7.8-12.5,11.1-19.1c2.3-4.4,3.9-9.1,4.9-13.9c0.7-3.7,0.7-7.5-0.1-11.2
	c-1.3-6.1-4.2-10.7-8.9-13.8c-4.7-3.1-10.1-4.1-16.2-2.8c-4.8,1-9.1,3.5-12.3,7.1c-3.6,4.1-6.1,9-7.3,14.3l-6.8,1.4
	c-3.1-4.4-7.3-7.9-12.2-10.2c-4.4-2.1-9.4-2.7-14.1-1.7c-6.1,1.3-10.6,4.3-13.7,9c-3.1,4.7-4,10.2-2.7,16.3
	c0.8,3.7,2.3,7.2,4.4,10.4c2.8,4.1,6.2,7.7,10,10.9c5.6,4.8,11.6,9.2,17.8,13.2C69.1,187.9,78.3,193.6,89.3,200.2z"/>
<path class="st0" d="M1762.1,256.3l-5.2-5.6c-8.9-9.9-16.3-18.4-22.1-25.6c-5.1-6.1-9.7-12.5-13.9-19.2c-3.1-4.8-5.5-9.9-7.3-15.3
	c-1.4-4.5-2.1-9.2-2.1-13.9c0-9.2,2.5-16.8,7.7-23c5.1-6.2,11.4-9.2,18.9-9.2c4.8,0,9.4,1.4,13.3,4.1c4.4,3.1,8.1,7.2,10.7,11.9
	c3.5-5.5,7.3-9.5,11.2-12.1c3.8-2.5,8.2-3.9,12.8-3.9c7.5,0,13.8,3.1,18.9,9.2c5.1,6.1,7.7,13.8,7.7,23c0,4.7-0.7,9.4-2.1,13.9
	c-1.8,5.4-4.2,10.5-7.3,15.3c-4.2,6.7-8.9,13.1-13.9,19.2c-5.8,7.2-13.2,15.7-22.1,25.6L1762.1,256.3z M1762.1,244.3
	c8.5-9.4,15.6-17.6,21.1-24.3c4.7-5.7,9.1-11.6,13.1-17.8c2.8-4.2,5.1-8.8,6.8-13.6c1.3-3.8,2-7.8,2-11.9c0-6.7-1.8-12.2-5.3-16.6
	c-3.3-4.2-8.3-6.6-13.6-6.5c-4.5,0.1-8.8,1.8-12.1,4.8c-3.7,3.2-6.7,7.7-9,13.5h-6.2c-1.8-5.1-4.8-9.7-8.8-13.4
	c-3.3-3.1-7.6-4.8-12.1-4.9c-5.3-0.1-10.4,2.3-13.6,6.5c-3.5,4.3-5.3,9.8-5.3,16.6c0,4.1,0.7,8.1,2,11.9c1.7,4.8,4,9.4,6.8,13.7
	c4,6.2,8.4,12.1,13.2,17.8C1746.7,226.9,1753.7,234.9,1762.1,244.3z"/>
<path class="st0" d="M527.2,422.7L525,419c-3.8-6.4-6.8-11.9-9.2-16.4c-2-3.8-3.8-7.8-5.3-11.9c-1.1-2.8-1.7-5.8-2-8.8
	c-0.1-2.4,0.1-4.8,0.8-7.1c2.4-8.5,11.2-13.5,19.7-11.1c0.2,0.1,0.4,0.1,0.6,0.2c2.7,0.8,5.2,2.3,7.2,4.4c2.1,2.2,3.6,4.8,4.5,7.7
	c2.5-1.9,5.4-3.2,8.4-3.9c2.7-0.6,5.5-0.4,8.1,0.4c8.5,2.4,13.4,11.3,11,19.8c-0.1,0.2-0.1,0.4-0.2,0.6c-0.7,2.3-1.8,4.5-3.3,6.4
	c-1.9,2.3-4.1,4.4-6.5,6.2c-3.5,2.5-7.2,4.8-11,6.9c-4.5,2.4-10.1,5.3-16.8,8.5L527.2,422.7z M529,416.8c6.4-3.1,11.7-5.8,16-8.1
	c3.6-1.9,7-4,10.4-6.3c2.2-1.5,4.3-3.3,6-5.4c1.3-1.6,2.3-3.4,2.9-5.4c1-3,0.8-6.2-0.7-9c-1.5-2.8-4-4.8-7-5.6
	c-2.5-0.8-5.3-0.7-7.8,0.2c-2.8,1-5.3,2.7-7.3,5l-3.6-1.1c-0.3-2.9-1.4-5.7-3.2-8.1c-1.6-2.2-3.8-3.8-6.4-4.5c-3-1-6.2-0.8-9,0.7
	c-2.8,1.5-4.8,4.1-5.6,7.1c-0.6,2-0.8,4.1-0.6,6.2c0.3,2.7,1,5.4,2,7.9c1.5,3.8,3.2,7.4,5.1,11C522.5,405.6,525.5,410.8,529,416.8z"
	/>
<polygon class="st0" points="976.2,34.6 992.6,67.9 1029.4,73.2 1002.8,99.2 1009,135.8 976.2,118.5 943.3,135.8 949.6,99.2 
	923,73.2 959.7,67.9 "/>
<polygon class="st0" points="1172.2,341 1136.8,343.6 1119,374.2 1105.5,341.5 1070.9,334 1097.9,311 1094.4,275.8 1124.5,294.4 
	1156.9,280.1 1148.6,314.5 "/>
<polygon class="st0" points="422.9,180.4 407.3,155.2 377.8,153.7 396.9,131.1 389.2,102.6 416.6,113.8 441.4,97.6 439.1,127.2 
	462.2,145.7 433.4,152.7 "/>
<path class="st0" d="M669.4,14.8l-13.1,69c0,0.1,1.7-0.7,1.6-0.7c-34.7,13.4-59.4,5.9-61,5.4c0,0-3.2-8.7-3.2-8.7l-23.1-57
	c0-0.1,0-0.2,0.1-0.2c0.1,0,0.2,0,0.2,0.1l25.5,36.1c0.1,0.1,0.2,0.1,0.3,0c0,0,0.1-0.1,0.1-0.1l-0.5-38.3c0-0.1,0-0.2,0.1-0.2
	c0.1,0,0.2,0,0.2,0.1l11.8,37.1c0,0.1,0.1,0.2,0.2,0.2c0.1,0,0.2-0.1,0.2-0.2l0,0l5.1-38.9c0-0.1,0.1-0.2,0.2-0.2
	c0.1,0,0.2,0.1,0.2,0.2l10.2,37.5c0,0.1,0.1,0.2,0.2,0.2c0.1,0,0.2-0.1,0.2-0.2L630,17c0-0.1,0.1-0.2,0.2-0.2c0.1,0,0.2,0.1,0.2,0.2
	l9.3,36.3c0,0.1,0.1,0.2,0.2,0.2c0.1,0,0.2-0.1,0.2-0.2l5.4-36.6c0-0.1,0.1-0.2,0.2-0.2c0.1,0,0.2,0.1,0.2,0.2l9.5,37.8
	c0,0.1,0.1,0.1,0.2,0.1c0.1,0,0.1-0.1,0.1-0.1l13.4-39.8C669.1,14.6,669.2,14.6,669.4,14.8C669.3,14.7,669.4,14.7,669.4,14.8z"/>
<path class="st0" d="M1423.4,342.6L1388,394c0,0,1.7,0,1.6,0c-34.2-1.5-52.7-16.6-53.8-17.6c0,0,0.3-8.2,0.3-8.3l0.3-54.6
	c0-0.1,0.1-0.2,0.2-0.2c0.1,0,0.2,0.1,0.2,0.2l9.1,38.5c0,0.1,0.1,0.1,0.2,0.1c0,0,0.1-0.1,0.1-0.1l13-31.3c0-0.1,0.1-0.1,0.2-0.1
	c0.1,0,0.1,0.1,0.1,0.2l-2.9,34.4c0,0.1,0,0.2,0.1,0.2c0.1,0,0.1,0,0.2-0.1l18-29.8c0.1-0.1,0.2-0.1,0.2,0c0,0,0.1,0.1,0.1,0.1
	l-4.4,34.2c0,0.1,0.1,0.2,0.2,0.2c0.1,0,0.1,0,0.1-0.1l18.2-29.7c0.1-0.1,0.2-0.1,0.2,0c0,0,0.1,0.1,0.1,0.1l-4.8,32.9
	c0,0.1,0,0.2,0.1,0.2c0.1,0,0.2,0,0.2-0.1l17.4-27.8c0-0.1,0.1-0.1,0.2-0.1c0.1,0,0.1,0.1,0.1,0.2l-5.2,34.1c0,0.1,0,0.2,0.1,0.2
	c0.1,0,0.1,0,0.1-0.1l25.4-27.5C1423.2,342.2,1423.5,342.4,1423.4,342.6z"/>
<path class="st0" d="M1361.5,137.7l-5.4-5.6c-9.3-9.8-17-18.3-23.1-25.3c-5.2-5.9-10-12.2-14.3-18.8c-3.1-4.6-5.5-9.5-7.1-14.7
	c-1.3-4.2-1.7-8.6-1.4-13c0.7-16.1,14.4-28.6,30.5-27.8c0.4,0,0.8,0,1.1,0.1c5.2,0.3,10.2,2,14.6,4.8c4.6,3,8.4,7.1,11.2,11.8
	c3.7-4.3,8.2-7.9,13.3-10.4c4.5-2.1,9.5-3,14.5-2.6c16.1,0.8,28.5,14.6,27.7,30.7c0,0.4,0,0.8-0.1,1.1c-0.3,4.4-1.4,8.7-3.2,12.7
	c-2.4,4.9-5.4,9.5-9.1,13.6c-5.2,5.9-10.8,11.5-16.8,16.7c-7,6.2-15.7,13.5-26.3,21.9L1361.5,137.7z M1362.2,126.6
	c10.1-8.1,18.5-15.1,25-20.9c5.6-4.8,10.8-10,15.8-15.4c3.4-3.6,6.2-7.6,8.5-12c1.7-3.4,2.7-7.1,2.9-10.8c0.4-6.2-1.2-11.5-4.9-15.7
	s-8.6-6.6-14.8-7c-4.8-0.3-9.7,0.9-13.8,3.5c-4.6,2.9-8.3,7-10.8,11.8l-6.9-0.5c-1.8-5.1-4.9-9.6-9-13.1c-3.7-3.2-8.3-5.1-13.2-5.4
	c-6.2-0.4-11.4,1.2-15.6,5c-4.2,3.8-6.6,8.8-7,15c-0.2,3.7,0.3,7.5,1.5,11c1.6,4.7,3.9,9.1,6.8,13.2c4.2,6.1,8.7,11.9,13.6,17.5
	C1346.1,109.3,1353.4,117.3,1362.2,126.6L1362.2,126.6z"/>
<polygon class="st0" points="53.2,302.8 69.7,336.1 106.4,341.5 79.8,367.4 86.1,404 53.2,386.8 20.3,404 26.6,367.4 0,341.5 
	36.8,336.1 "/>
<path class="st0" d="M464,291.3l-35.4,51.4c0,0,1.7,0,1.7,0c-34.3-1.5-52.7-16.6-53.9-17.6c0,0,0.3-8.2,0.3-8.3l0.3-54.6
	c0-0.1,0.1-0.1,0.2-0.1c0.1,0,0.1,0.1,0.1,0.1l9.1,38.5c0,0.1,0.1,0.1,0.2,0.1c0,0,0.1,0,0.1-0.1l13-31.3c0-0.1,0.1-0.1,0.2-0.1
	c0.1,0,0.1,0.1,0.1,0.2l-3,34.5c0,0.1,0,0.2,0.1,0.2c0.1,0,0.1,0,0.2-0.1l18-29.8c0-0.1,0.1-0.1,0.2-0.1c0.1,0,0.1,0.1,0.1,0.2
	l-4.4,34.2c0,0.1,0.1,0.2,0.2,0.2c0.1,0,0.1,0,0.1-0.1l18.2-29.7c0.1-0.1,0.2-0.1,0.2,0c0,0,0.1,0.1,0.1,0.1l-4.9,32.9
	c0,0.1,0.1,0.2,0.2,0.2c0.1,0,0.1,0,0.1-0.1l17.5-27.8c0-0.1,0.1-0.1,0.2-0.1c0.1,0,0.1,0.1,0.1,0.2l-5.2,34.1c0,0.1,0,0.2,0.1,0.2
	c0.1,0,0.1,0,0.1-0.1l25.4-27.5c0.1-0.1,0.2-0.1,0.2-0.1S464,291.2,464,291.3z"/>
<path class="st0" d="M710.8,246.6l-3.8-3.8c-6.6-6.7-12-12.4-16.3-17.1c-3.7-4-7.1-8.3-10.1-12.8c-2.2-3.1-3.9-6.4-5.1-10
	c-0.9-2.9-1.3-5.9-1.1-8.9c0.2-5.5,2.6-10.6,6.8-14.2c4.1-3.6,9.6-5.4,15-5c3.6,0.2,7.2,1.3,10.2,3.2c3.2,2,5.9,4.8,7.9,8
	c2.5-3,5.7-5.4,9.2-7.1c3.2-1.4,6.6-2.1,10.1-1.9c5.5,0.2,10.7,2.6,14.4,6.7c3.7,4,5.6,9.4,5.1,14.9c-0.2,3-0.9,5.9-2.1,8.7
	c-1.6,3.4-3.7,6.5-6.2,9.4c-3.6,4.1-7.4,7.9-11.5,11.5c-4.8,4.3-10.8,9.3-18.2,15.1L710.8,246.6z M711.3,239
	c7-5.6,12.8-10.4,17.3-14.4c3.8-3.3,7.5-6.9,10.9-10.6c2.3-2.5,4.3-5.3,5.8-8.3c1.1-2.3,1.8-4.8,2-7.4c0.4-3.9-1-7.8-3.6-10.7
	c-2.7-2.9-6.4-4.6-10.4-4.7c-3.4-0.2-6.7,0.7-9.6,2.5c-3.1,2-5.7,4.8-7.5,8.1l-4.8-0.3c-1.3-3.5-3.5-6.5-6.4-8.9
	c-2.6-2.2-5.8-3.4-9.2-3.6c-3.9-0.4-7.9,0.9-10.8,3.5c-2.9,2.6-4.7,6.3-4.7,10.2c-0.1,2.6,0.2,5.2,1.1,7.6c1.2,3.2,2.8,6.2,4.8,9
	c3,4.1,6.2,8.1,9.6,11.8C699.9,227.3,705.1,232.7,711.3,239L711.3,239z"/>
<polygon class="st0" points="1551.2,158.8 1567.7,192.1 1604.4,197.5 1577.8,223.4 1584.1,260 1551.2,242.8 1518.3,260 
	1524.6,223.4 1498,197.5 1534.8,192.1 "/>
<path class="st0" d="M1716.8,21l-25.5,37.1c0,0,1.2,0,1.2,0c-24.7-1.1-38-12-38.8-12.7c0,0,0.2-5.9,0.2-6l0.2-39.4
	c0-0.1,0.2-0.1,0.2,0l6.5,27.8c0,0.1,0.1,0.1,0.2,0.1c0,0,0,0,0.1-0.1l9.4-22.6c0-0.1,0.1-0.1,0.2-0.1c0,0,0.1,0.1,0.1,0.1
	l-2.1,24.8c0,0.1,0.1,0.1,0.1,0.1c0,0,0.1,0,0.1-0.1l13-21.5c0-0.1,0.1-0.1,0.2,0c0,0,0.1,0.1,0.1,0.1l-3.2,24.7
	c0,0.1,0,0.1,0.1,0.1c0,0,0.1,0,0.1-0.1l13.2-21.4c0-0.1,0.1-0.1,0.2,0c0,0,0.1,0.1,0.1,0.1l-3.5,23.7c0,0.1,0.1,0.1,0.1,0.1
	c0,0,0.1,0,0.1,0l12.6-20c0,0,0.1-0.1,0.2,0c0,0,0,0.1,0,0.1l-3.7,24.6c0,0.1,0,0.1,0.1,0.1c0,0,0.1,0,0.1,0l18.3-19.8
	C1716.6,20.9,1716.7,20.9,1716.8,21C1716.8,21,1716.8,21,1716.8,21z"/>
<polygon class="st0" points="126.7,67.4 117.6,52.6 100.2,51.7 111.4,38.5 106.9,21.7 123,28.3 137.5,18.9 136.2,36.2 149.7,47 
	132.9,51.2 "/>
</svg>
